<?xml version="1.0" encoding="utf-8"?>
<!-- Generator: Adobe Illustrator 18.0.0, SVG Export Plug-In . SVG Version: 6.00 Build 0)  -->
<!DOCTYPE svg PUBLIC "-//W3C//DTD SVG 1.1//EN" "http://www.w3.org/Graphics/SVG/1.1/DTD/svg11.dtd">
<svg version="1.1" id="Layer_1" xmlns="http://www.w3.org/2000/svg" xmlns:xlink="http://www.w3.org/1999/xlink" x="0px" y="0px"
	 viewBox="926 356 404 178.6" enable-background="new 926 356 404 178.6" xml:space="preserve">
<g>
	<path fill="#A7A7A7" d="M1123.7,452.9c-2.2-3.5-0.3-7.7,1.7-10.5C1124.7,445.7,1125.5,449.9,1123.7,452.9"/>
	<path fill="#A7A7A7" d="M1124.5,461.2c-2-3.2-5.5-6.4-3.7-10.6l0.6-1.2c-0.1,1.2-0.2,2.9,0.2,4c1.1,1.7,1.7,3.5,2.2,5.4
		c0.1-2.3,1.1-4.5,2-6.5l0.5-3C1128.8,453.7,1124.7,457.1,1124.5,461.2"/>
	<path fill="#A7A7A7" d="M1128.1,463.5c-1,2-0.6,4.9,0.1,6.8c-2.8-2.1-6.5-4.1-7.7-7.7c-0.5-1.7-1-3.8-1-5.5c0.7,1.7,1.6,3.4,3,4.9
		c1.7,1.5,2.7,3.5,3.8,5.3c-0.2-1.6-0.6-3.4-0.2-5c0.5-1.8,1-3.7,1.3-5.5C1128.1,458.8,1128.6,461.1,1128.1,463.5"/>
	<path fill="#A7A7A7" d="M1132.9,473.3c0.5,1.9,1.5,3.6,2.6,5.3c-2.6-1.6-5.7-1.6-8.1-3.5c-2.1-2-3.6-4.4-5.1-6.7
		c1.6,1.4,3.2,3.1,5,3.7c2,1,3.7,2.6,5.3,4.1c-1.1-1.6-2.2-3.4-2.6-5.3l-0.4-5.8C1131.1,467.5,1132.8,470.1,1132.9,473.3"/>
	<path fill="#A7A7A7" d="M1187.6,474.6h-0.4c-0.2-0.9-0.5-2-1.6-2.3c-1.3-0.3-2.8-0.2-4.1-0.2c-0.3,1.3-0.1,2.9-0.2,4.3l4.9,0.9
		l-1.6,1.7c-1-0.6-2.1-0.7-3.2-1.1c0,2-0.2,4.1,0.2,6.1c0.4,0.5,1.3,0.3,1.9,0.4c0.1,0.1,0,0.2,0,0.4h-6.3c-0.1-0.7,1-0.3,1.4-0.7
		c0.6-0.5,0.4-1.7,0.5-2.6v-4c-4-0.4-8.5-0.3-10.6,3.5c-1.8,3.6-3.3,8.6-7.9,9.8c-1.6,0.5-3.5,0.5-5.2,0.2c2.7-0.7,5.4-1.8,7.1-4.5
		c2-3.9,5.6-8.2,10-9.5c2-0.6,4.1-1.1,6.5-0.9c0.1-1.3,0.2-2.8-0.2-3.8c-0.4-0.4-1.1-0.4-1.6-0.4v-0.4h10.1L1187.6,474.6z"/>
	<path fill="#A7A7A7" d="M1139.7,477.8c1,2.2,3.2,4,5,5.6c-4.4-0.3-9.1,0.3-12.7-2.1c-1.5-0.9-2.9-2.3-3.9-3.8
		c3.8,2.6,8.8,2.2,12.8,4.4c-3.5-2.2-5.1-6-6.1-9.6C1136.6,473.9,1138.5,475.8,1139.7,477.8"/>
	<path fill="#A7A7A7" d="M1150.7,483.4c1,0.7,2,1.4,3.3,1.3c-2.6,0.7-4.5,2.9-7.2,3c-3.3,0.6-6.5-0.2-8.9-2.2
		c1.6,0.5,3.5,0.5,5.3,0.4c2-0.9,4.3-1.2,6.7-1.1l1.3,0.1c-2.3-0.9-4.9-1.8-6.6-3.9c-0.7-1.4-2-2.8-3.3-3.8
		C1145,477.7,1147.9,480.6,1150.7,483.4"/>
	<path fill="#A7A7A7" d="M1160.7,482.6c1.1-0.1,2-0.2,3.1-0.5c-3.4,2.2-5.5,6.8-9.6,7.7c-2.3,0.6-5,0.2-7.3-0.3
		c4,0,7.3-2.2,10.6-4.4l3-1.4c-1.9,0.2-4.5,0.5-6.2-0.5c-1.1-0.9-2-2.1-3.3-2.6C1154.6,480.4,1157,483,1160.7,482.6"/>
	<path fill="#A7A7A7" d="M1145.7,459.5c0,3.7-1.5,5.7-5.4,5.7c-3.7,0-5.5-1.3-5.5-5v-4.9c0-0.6,0-2.2-0.2-2.8
		c-0.3-0.7-1.1-0.7-1.8-0.7v-0.4c1,0,1.9,0.1,3,0.1s2.1-0.1,3.2-0.1v0.4c-0.6,0-1.5,0-1.8,0.7c-0.2,0.5-0.2,2.1-0.2,2.8v5.1
		c0,2.7,1.1,4.1,3.8,4.1c2.9,0,4.3-1.5,4.3-4.3v-4.6c0-0.7,0-2.3-0.2-3c-0.3-0.9-1.1-1-1.9-1v-0.4c0.9,0,1.6,0.1,2.4,0.1
		c0.7,0,1.5-0.1,2.3-0.1v0.4c-0.6,0-1.4,0-1.7,0.7c-0.3,0.7-0.3,2.3-0.3,3.2v3.7H1145.7z"/>
	<path fill="#A7A7A7" d="M1152,453.1c-0.6-1-1.2-1.2-2.2-1.3v-0.4c0.6,0,1.3,0.1,1.9,0.1c0.5,0,1.1-0.1,1.6-0.1l8.7,10.6l0,0v-5.7
		c0-0.9,0-2.3-0.2-3.2c-0.2-1.2-0.9-1.1-1.8-1.3v-0.4c0.7,0,1.5,0.1,2.2,0.1s1.4-0.1,2.2-0.1v0.4c-0.7,0.1-1.3,0-1.6,1
		c-0.2,0.6-0.2,2.8-0.2,3.6v8.9h-0.6c-0.4-0.5-0.9-1.2-1.4-1.7l-8.1-9.8l0,0v6.9c0,0.7,0,2.3,0.3,3c0.3,0.9,1.1,0.7,1.8,0.9v0.4
		c-0.7,0-1.6-0.1-2.3-0.1s-1.5,0.1-2.3,0.1v-0.4c0.9-0.1,1.6-0.1,1.8-1.1c0.2-0.7,0.2-2,0.2-2.9V453.1z"/>
	<path fill="#A7A7A7" d="M1169.3,455.3c0-0.6,0-2.2-0.2-2.8c-0.3-0.7-1.1-0.7-1.8-0.7v-0.4c1,0,2,0.1,3,0.1c1.1,0,2.1-0.1,3.1-0.1
		v0.4c-0.6,0-1.5,0-1.8,0.7c-0.2,0.5-0.2,2.1-0.2,2.8v5.8c0,0.6,0,2.2,0.2,2.8c0.3,0.7,1.2,0.7,1.8,0.7v0.3c-1,0-1.9,0-3,0
		s-2.1,0.1-3.1,0.1v-0.4c0.6,0,1.5,0,1.8-0.7c0.2-0.5,0.2-2.1,0.2-2.8V455.3z"/>
	<path fill="#A7A7A7" d="M1188.6,454.5h-0.5c-0.1-2-1-2.6-2.9-2.6c-0.7,0-2-0.1-2,0.5v9.8c0,1.5,0.3,2.1,2.3,2.2v0.4
		c-1.2,0-2.3-0.1-3.4-0.1c-1.2,0.1-2.2,0.1-3.3,0.1v-0.4c2-0.1,2.3-0.6,2.3-2.2v-9.8c0-0.6-1-0.5-1.7-0.5c-2,0-3.1,0.1-3.1,2.6h-0.4
		v-3.2h12.7V454.5z"/>
	<path fill="#A7A7A7" d="M1192.7,455.4c0-0.6,0-2.2-0.2-2.8c-0.3-0.7-1.1-0.7-1.8-0.7v-0.5h10.3v3.1h-0.5c-0.4-2.4-1.5-2.6-3.6-2.6
		h-1.5c-0.3,0-0.4,0-0.5,0.1c0,0.1,0,0.3,0,0.7v4.9c2.9,0.1,3.3-1.1,3.4-2.6h0.5c0,1,0,1.9-0.1,2.8c0,0.9,0.1,1.7,0.1,2.6h-0.5
		c-0.3-2.1-1.4-2.2-3.4-2.2v3.4c0,0.6,0,1.6,0.3,2.1c0.5,0.7,1.8,0.7,2.7,0.7c2.1,0,3.5-0.3,3.8-2.8h0.5l-0.2,3.3h-11.3v-0.4
		c0.6,0,1.5,0,1.8-0.7c0.2-0.5,0.2-2.1,0.2-2.8V455.4L1192.7,455.4z"/>
	<path fill="#A7A7A7" d="M1206.8,455.3c0-0.6,0-2.2-0.2-2.8c-0.2-0.7-1.1-0.7-1.7-0.7v-0.5c0.9,0,1.7,0.1,2.6,0.1
		c1.2,0,2.2-0.1,3.3-0.1c4.4-0.1,7.7,2.7,7.7,7.1c0,4.4-2.9,6.7-7.1,6.6c-1.2,0-2.4-0.1-3.7-0.1c-1,0-1.9,0.1-2.8,0.1v-0.4
		c0.6,0,1.5,0,1.7-0.7c0.2-0.5,0.2-2.1,0.2-2.8v-5.7H1206.8z M1208.9,461.3c0,0.7-0.1,1.7,0.3,2.3c0.4,0.7,1.5,0.7,2.3,0.7
		c3.6,0,4.4-2.6,4.4-5.6c0-4-1.2-6.9-5.6-6.9c-0.2,0-1.1,0-1.3,0.1c-0.1,0.1-0.1,0.5-0.1,0.6V461.3z"/>
	<path fill="#A7A7A7" d="M1230.1,453.1c-0.6-1-1.2-1.2-2.2-1.3v-0.4c0.6,0,1.3,0.1,1.9,0.1c0.5,0,1.1-0.1,1.6-0.1l8.7,10.6l0,0v-5.7
		c0-0.9,0-2.3-0.2-3.2c-0.2-1.2-0.9-1.1-1.8-1.3v-0.4c0.7,0,1.5,0.1,2.2,0.1s1.4-0.1,2.2-0.1v0.4c-0.7,0.1-1.3,0-1.6,1
		c-0.2,0.6-0.2,2.8-0.2,3.6v8.9h-0.6c-0.4-0.5-1-1.2-1.4-1.7l-8.1-9.8l0,0v6.9c0,0.7,0,2.3,0.3,3c0.3,0.9,1.1,0.7,1.8,0.9v0.4
		c-0.7,0-1.6-0.1-2.3-0.1s-1.5,0.1-2.3,0.1v-0.4c0.9-0.1,1.6-0.1,1.8-1.1c0.2-0.7,0.2-2,0.2-2.9V453.1L1230.1,453.1z"/>
	<path fill="#A7A7A7" d="M1247.2,460.5c-0.3,0.7-1,2.3-1,3.1c0,0.9,1.1,0.9,1.7,0.9v0.5c-0.7,0-1.5-0.1-2.2-0.1
		c-0.7,0-1.4,0.1-2.1,0.1v-0.4c1.1-0.1,1.6-0.4,2-1.5c0.5-1.3,1.2-2.7,1.7-3.9l3.2-8.1h0.7l4.1,10.5c0.2,0.5,0.7,1.8,1.1,2.2
		c0.4,0.6,1.1,0.6,1.8,0.7v0.4c-1,0-2-0.1-3-0.1s-2,0.1-3,0.1v-0.4c0.5,0,1.6,0,1.6-0.7c0-0.5-0.2-1.2-0.4-1.6l-0.9-2.1h-5.1
		L1247.2,460.5z M1252.2,459.3l-2.2-5.8l-2.3,5.8H1252.2z"/>
	<path fill="#A7A7A7" d="M1270.6,454.5h-0.5c-0.1-2-1-2.6-2.9-2.6c-0.7,0-2-0.1-2,0.5v9.8c0,1.5,0.3,2.1,2.3,2.2v0.4
		c-1.2,0-2.3-0.1-3.4-0.1s-2.1,0.1-3.3,0.1v-0.4c2-0.1,2.3-0.6,2.3-2.2v-9.8c0-0.6-1-0.5-1.7-0.5c-2,0-3.1,0.1-3.1,2.6h-0.4v-3.2
		h12.7V454.5z"/>
	<path fill="#A7A7A7" d="M1274.8,455.3c0-0.6,0-2.2-0.2-2.8c-0.3-0.7-1.1-0.7-1.8-0.7v-0.4c1,0,2,0.1,3,0.1c1.1,0,2.1-0.1,3.1-0.1
		v0.4c-0.6,0-1.5,0-1.8,0.7c-0.2,0.5-0.2,2.1-0.2,2.8v5.8c0,0.6,0,2.2,0.2,2.8c0.3,0.7,1.1,0.7,1.8,0.7v0.3c-1,0-2-0.1-3-0.1
		c-1.1,0-2.1,0.1-3.1,0.1v-0.4c0.6,0,1.5,0,1.8-0.7c0.2-0.5,0.2-2.1,0.2-2.8V455.3z"/>
	<path fill="#A7A7A7" d="M1281.4,458.3c0-4.1,3.6-7.1,7.5-7.1s7.4,2.9,7.4,7c0,4.3-3.3,7.1-7.5,7.1
		C1284.9,465.3,1281.4,462.4,1281.4,458.3 M1284,458.3c0,3.2,1.3,6.5,5,6.5c3.7,0,4.8-3.5,4.8-6.5c0-3.1-1.3-6.5-4.9-6.5
		C1285.3,451.7,1284,455.2,1284,458.3"/>
	<path fill="#A7A7A7" d="M1300.7,453.1c-0.6-1-1.2-1.2-2.2-1.3v-0.4c0.6,0,1.3,0.1,1.9,0.1c0.5,0,1.1-0.1,1.6-0.1l8.7,10.6l0,0v-5.7
		c0-0.9,0-2.3-0.2-3.2c-0.2-1.2-0.9-1.1-1.8-1.3v-0.4c0.7,0,1.5,0.1,2.2,0.1c0.7,0,1.4-0.1,2.2-0.1v0.4c-0.7,0.1-1.3,0-1.6,1
		c-0.2,0.6-0.2,2.8-0.2,3.6v8.9h-0.6c-0.4-0.5-1-1.2-1.4-1.7l-8.1-9.8l0,0v6.9c0,0.7,0,2.3,0.3,3c0.3,0.9,1.1,0.7,1.8,0.9v0.4
		c-0.7,0-1.6-0.1-2.3-0.1c-0.7,0-1.5,0.1-2.3,0.1v-0.4c0.9-0.1,1.6-0.1,1.8-1.1c0.2-0.7,0.2-2,0.2-2.9V453.1z"/>
	<path fill="#A7A7A7" d="M1315.9,460.8h0.4c0.4,2.1,1.5,3.8,3.9,3.8c1.6,0,3-1,3-2.6c0-1.9-1.6-2.7-3.1-3.2c-1.9-0.7-3.9-1.7-3.9-4
		c0-2.3,1.8-3.7,4-3.7c1.2,0,2.2,0.4,3.1,1.1l0.4-0.9h0.2l0.1,3.6h-0.4c-0.4-1.7-1.5-3.3-3.4-3.3c-1.3,0-2.4,0.9-2.4,2.2
		c0,1.6,1.5,2.2,2.8,2.8c2.1,0.9,4.6,1.9,4.6,4.7c0,2.7-2.6,4-4.9,4c-1.4,0-2.6-0.4-3.6-1.3l-0.5,0.9h-0.2V460.8L1315.9,460.8z"/>
	<path fill="#A7A7A7" d="M1189.4,478.2c0-4.1,3.6-7.1,7.5-7.1s7.4,2.9,7.4,7c0,4.3-3.3,7.1-7.5,7.1
		C1192.9,485.2,1189.4,482.3,1189.4,478.2 M1192.1,478.2c0,3.3,1.3,6.5,5,6.5c3.7,0,4.8-3.5,4.8-6.5c0-3.1-1.3-6.5-4.9-6.5
		C1193.4,471.6,1192.1,475.1,1192.1,478.2"/>
	<path fill="#A7A7A7" d="M1219.1,479.4c0,3.7-1.5,5.7-5.4,5.7c-3.7,0-5.5-1.3-5.5-5v-4.9c0-0.6,0-2.2-0.2-2.8
		c-0.3-0.7-1.1-0.7-1.8-0.7v-0.4c1,0,1.9,0.1,3,0.1s2.1-0.1,3.1-0.1v0.4c-0.6,0-1.5,0-1.8,0.7c-0.2,0.5-0.2,2.1-0.2,2.8v5.1
		c0,2.7,1.1,4.1,3.8,4.1c2.9,0,4.3-1.5,4.3-4.3v-4.7c0-0.7,0-2.3-0.2-3c-0.3-0.9-1.1-1-1.9-1v-0.4c0.9,0,1.6,0.1,2.4,0.1
		c0.7,0,1.5-0.1,2.3-0.1v0.4c-0.6,0-1.4,0-1.7,0.7c-0.3,0.7-0.3,2.3-0.3,3.2v3.8H1219.1z"/>
	<path fill="#A7A7A7" d="M1225.4,472.9c-0.6-0.9-1.2-1.2-2.2-1.3v-0.4c0.6,0,1.3,0.1,1.9,0.1c0.5,0,1.1-0.1,1.6-0.1l8.7,10.6l0,0
		v-5.7c0-0.9,0-2.3-0.2-3.2c-0.2-1.2-0.9-1.1-1.8-1.3v-0.4c0.7,0,1.5,0.1,2.2,0.1c0.7,0,1.4-0.1,2.2-0.1v0.4c-0.7,0.1-1.3,0-1.6,1
		c-0.2,0.6-0.2,2.8-0.2,3.6v8.9h-0.6c-0.4-0.5-1-1.2-1.4-1.7l-8.1-9.8l0,0v6.9c0,0.7,0,2.3,0.3,3c0.3,0.9,1.1,0.7,1.8,0.9v0.4
		c-0.7,0-1.6-0.1-2.3-0.1c-0.7,0-1.5,0.1-2.3,0.1v-0.4c0.9-0.1,1.6-0.1,1.8-1.1c0.2-0.7,0.2-2,0.2-2.9V472.9L1225.4,472.9z"/>
	<path fill="#A7A7A7" d="M1242.9,475.2c0-0.6,0-2.2-0.2-2.8c-0.2-0.7-1.1-0.7-1.7-0.7v-0.5c0.9,0,1.7,0.1,2.6,0.1
		c1.2,0,2.2-0.1,3.4-0.1c4.4-0.1,7.7,2.7,7.7,7.1c0,4.4-2.9,6.7-7.1,6.6c-1.2,0-2.4-0.1-3.7-0.1c-1,0-1.9,0.1-2.8,0.1v-0.5
		c0.6,0,1.5,0,1.7-0.7c0.2-0.5,0.2-2.1,0.2-2.8V475.2z M1245,481.2c0,0.7-0.1,1.7,0.3,2.3c0.4,0.7,1.5,0.7,2.3,0.7
		c3.6,0,4.4-2.6,4.4-5.6c0-4-1.2-6.9-5.6-6.9c-0.2,0-1.1,0-1.3,0.1c-0.1,0.1-0.1,0.5-0.1,0.6V481.2z"/>
	<path fill="#A7A7A7" d="M1259,480.4c-0.3,0.7-1,2.3-1,3.1c0,0.9,1.1,0.9,1.7,0.9v0.4c-0.7,0-1.5-0.1-2.2-0.1
		c-0.7,0-1.4,0.1-2.1,0.1v-0.4c1.1-0.1,1.6-0.4,2-1.5c0.5-1.3,1.2-2.7,1.7-3.9l3.2-8.1h0.7l4.1,10.5c0.2,0.5,0.7,1.8,1.1,2.2
		c0.4,0.6,1.1,0.6,1.8,0.7v0.4c-1,0-1.9-0.1-3-0.1c-1,0-2,0.1-3,0.1v-0.4c0.5,0,1.6,0,1.6-0.7c0-0.5-0.2-1.2-0.4-1.6l-0.9-2.1h-5.1
		L1259,480.4z M1264,479.2l-2.2-5.8l-2.3,5.8H1264z"/>
	<path fill="#A7A7A7" d="M1282.6,474.4h-0.5c-0.1-2-1-2.6-2.9-2.6c-0.7,0-2-0.1-2,0.5v9.8c0,1.5,0.3,2.1,2.3,2.2v0.4
		c-1.2,0-2.3-0.1-3.4-0.1c-1.1,0-2.1,0.1-3.3,0.1v-0.4c2-0.1,2.3-0.6,2.3-2.2v-9.8c0-0.6-1-0.5-1.7-0.5c-2,0-3.1,0.1-3.1,2.6h-0.4
		v-3.2h12.7V474.4z"/>
	<path fill="#A7A7A7" d="M1287,475.2c0-0.6,0-2.2-0.2-2.8c-0.3-0.7-1.1-0.7-1.8-0.7v-0.4c1,0,2,0.1,3,0.1c1.1,0,2.1-0.1,3.1-0.1v0.4
		c-0.6,0-1.5,0-1.8,0.7c-0.2,0.5-0.2,2.1-0.2,2.8v5.8c0,0.6,0,2.2,0.2,2.8c0.3,0.7,1.2,0.7,1.8,0.7v0.4c-1,0-2-0.1-3-0.1
		c-1.1,0-2.1,0.1-3.1,0.1v-0.4c0.6,0,1.5,0,1.8-0.7c0.2-0.5,0.2-2.1,0.2-2.8V475.2z"/>
	<path fill="#A7A7A7" d="M1293.9,478.2c0-4.1,3.6-7.1,7.5-7.1s7.4,2.9,7.4,7c0,4.3-3.3,7.1-7.5,7.1
		C1297.4,485.2,1293.9,482.3,1293.9,478.2 M1296.4,478.2c0,3.3,1.3,6.5,5,6.5s4.8-3.5,4.8-6.5c0-3.1-1.3-6.5-4.9-6.5
		C1297.8,471.6,1296.4,475.1,1296.4,478.2"/>
	<path fill="#A7A7A7" d="M1313.1,472.9c-0.6-0.9-1.2-1.2-2.2-1.3v-0.4c0.6,0,1.3,0.1,1.9,0.1c0.5,0,1.1-0.1,1.6-0.1l8.7,10.6l0,0
		v-5.7c0-0.9,0-2.3-0.2-3.2c-0.2-1.2-0.9-1.1-1.8-1.3v-0.4c0.7,0,1.5,0.1,2.2,0.1s1.4-0.1,2.2-0.1v0.4c-0.7,0.1-1.3,0-1.6,1
		c-0.2,0.6-0.2,2.8-0.2,3.6v8.9h-0.6c-0.4-0.5-1-1.2-1.4-1.7l-8.1-9.8l0,0v6.9c0,0.7,0,2.3,0.3,3c0.3,0.9,1.1,0.7,1.8,0.9v0.4
		c-0.7,0-1.6-0.1-2.3-0.1s-1.5,0.1-2.3,0.1v-0.4c0.9-0.1,1.6-0.1,1.8-1.1c0.2-0.7,0.2-2,0.2-2.9V472.9z"/>
</g>
<g>
	<g>
		<path fill="#FFFFFF" d="M936.3,516.3c3,1.1,6.7,2.1,10.1,2.1c10.7,0,17.2-4.8,17.2-18.8v-17.2c0-9.3-6.6-17.7-16.2-17.7
			c-8,0-16,7.5-16,17.7c0,10.2,7.9,17.7,16,17.7c5.2,0,8.9-2.2,12.4-5.8v3.8c-2.5,2.1-6.3,5-12.4,5c-10.8,0-19.3-8.7-19.3-20.7
			c0-12,8.5-20.7,19.3-20.7c10.8,0,19.3,8.7,19.3,20.7v19.3c0.2,12.4-8.4,19.6-20,19.6c-3.9,0-7.8-0.7-11.5-2.1L936.3,516.3z"/>
		<rect x="973.3" y="462.4" fill="#FFFFFF" width="3.2" height="39.8"/>
		<rect x="1007" y="443.5" fill="#FFFFFF" width="3.2" height="58.7"/>
		<path fill="#FFFFFF" d="M1002.6,464.9c-1-0.2-2.1-0.4-3.1-0.4c-7,0-12.8,5.5-12.8,13.8v23.9h-3.2v-24.3c0-9.8,7.1-16.4,15.9-16.4
			c1,0,2.1,0.1,3.1,0.3V464.9z"/>
		<path fill="#FFFFFF" d="M1021.9,443.5v23.9c0,8.3,5.8,13.8,12.8,13.8c7,0,12.8-5.5,12.8-13.8v-23.9h3.2v24.3
			c0,9.8-7.1,16.4-15.9,16.4s-15.9-6.6-15.9-16.4v-24.3H1021.9z"/>
		<path fill="#FFFFFF" d="M1055.5,502.3v-39c0-12,8.5-20.7,19.3-20.7s19.3,8.7,19.3,20.7s-8.5,20.7-19.3,20.7c-6.2,0-10-3-12.4-5
			v-3.8c3.4,3.6,7.1,5.8,12.4,5.8c8,0,16-7.5,16-17.7c0-10.2-7.9-17.7-16-17.7c-9.6,0-16.2,8.4-16.2,17.7v39h-3.2V502.3z"/>
		<path fill="#EB008B" d="M1043.9,373.6c-2.6,0-7.2,9.1-0.2,30.8c0,0.1,0,0.2-0.1,0.2c-0.1,0-0.4-0.4-0.4-0.4
			c-7.2-16.7-4.4-22.3-4.7-22.5h-0.1c-1.1,0-4.9,7.7,1.1,26.6c0.1,0.4,0.1,0.5,0.1,0.5c-0.1,0-0.5-0.5-0.6-0.8
			c-5.6-11.9-3.6-16.8-4-16.9l0,0c-0.7,0-4,5.9,0.4,20.6c2.2,7,6,22.3,20.6,24.8c0.5,0.1,1,0.1,1.5,0.1h0.1
			c8.1-0.1,16.4-9.7,17.4-10.9c2.1-2.7,4.9-6.2,9.1-6.2c1,0,2.1,0.2,3.2,0.7c-0.1-0.1-0.3-0.3-0.8-0.5c-0.6-0.3-1.5-0.6-2.9-0.6
			c-2,0-4.7,0.6-8.6,2.9c-1.4,0.8-2.9,1.7-4.3,2.6c-2.1,1.1-4.1,1.9-6.1,1.9c-2.3,0-4.4-0.9-6.4-3.1c-2.3-2.6-4-6.2-5.2-10
			c-1.9-6-1.1-12.5,0.3-18.6c-3.9-10.4-3.4-16-3.7-16.2h-0.1c-0.8,0-3.9,2.2-1.3,14.5c1,4.8,2.9,8.9,2.9,8.9l-0.1,0.1
			c-0.1,0-0.3-0.4-0.3-0.4c-9.4-19-5.7-27.7-6.2-27.9C1044.1,373.6,1044,373.6,1043.9,373.6 M1087.3,420.3L1087.3,420.3
			L1087.3,420.3L1087.3,420.3"/>
		<path fill="#00ADEE" d="M1076.5,368.1c-2.5,0-8.6,4.9-13.6,23.8c0,0.1-0.1,0.1-0.1,0.1c-0.1,0-0.2-0.4-0.2-0.4
			c2.8-16.5,7.6-20.6,7.5-20.7c0-0.1-0.1-0.1-0.2-0.1c-1.4,0-7.1,3.5-11.5,20.4c-0.1,0.4-0.2,0.5-0.2,0.5c-0.1,0-0.1-0.6-0.1-0.9
			c1.6-11.9,5.6-15.4,5.3-15.6h-0.1c-0.9,0-5.7,2.7-9.7,17.8c-0.2,0.6-0.3,1.2-0.4,1.9c1.7,4.7,4.4,10.4,8.4,17
			c1.1,1.9,3.8,6.1,6.9,6.1c0.3,0,0.7-0.1,1-0.2c1.2-0.4,2.3-1.1,3.6-1.6c1.6-0.6,3.4-1.1,5.3-1.3c0.2,0,0.5,0,0.7,0
			c2.1,0,4.7,0.5,6.7,2c0.8,0.6,1.4,2,1.4,3v0.2c0,0.2,0,0.4-0.1,0.6c0.7-0.7,0.9-2.2,0.5-3.1c-0.9-2.1-3.1-3.3-4.7-3.8
			c-1.1-0.3-2.4-0.4-3.5-0.4c-0.4,0-0.8,0-1.2,0c-1.2,0.1-2.4,0.2-3.5,0.4c-0.2,0-0.4,0.1-0.6,0.1c-0.9,0-1.4-0.5-1.9-1.2
			c-0.7-1.5-0.7-4-0.7-6.2c0.7-22,7.4-31.7,7.2-32c0,0-0.1-0.1-0.2-0.1c-0.9,0-4.2,1.6-8,12.1c-1.6,4.4-2.3,8.5-2.3,8.5h-0.1
			c-0.1,0-0.1-0.4-0.1-0.4c2.3-19,9.4-25.5,9.1-25.7C1077.2,368.2,1076.9,368.1,1076.5,368.1 M1087.3,420.3L1087.3,420.3
			L1087.3,420.3L1087.3,420.3"/>
		<path fill="#782B8F" d="M1053.2,394.7c-1.4,6.1-2.2,12.8-0.3,18.6c1.2,3.9,3,7.5,5.2,10c2,2.2,4.1,3.1,6.4,3.1
			c2.1,0,4.1-0.7,6.1-1.9c1.4-0.8,2.9-1.7,4.3-2.6c3.8-2.3,6.7-2.9,8.6-2.9c1.3,0,2.3,0.3,2.9,0.6c0.4,0.2,0.7,0.4,0.8,0.5l0,0l0,0
			c0.1-0.2,0.1-0.3,0.1-0.5v-0.2c0-1-0.6-2.5-1.4-3.1c-2.1-1.4-4.7-2-6.7-2c-0.2,0-0.5,0-0.7,0c-2,0.1-3.7,0.6-5.3,1.3
			c-1.2,0.5-2.4,1.2-3.6,1.6c-0.3,0.1-0.7,0.2-1,0.2c-3.1,0-5.8-4.2-6.9-6.1C1057.6,405,1054.9,399.4,1053.2,394.7"/>
		<path fill="#2BABE2" d="M1087.3,420.3L1087.3,420.3L1087.3,420.3"/>
		<polygon fill="#FFFFFF" points="1094.8,439.6 1093.3,439.6 1093.3,439.1 1096.9,439.1 1096.9,439.6 1095.3,439.6 1095.3,443.5 
			1094.8,443.5 		"/>
		<polygon fill="#FFFFFF" points="1097.4,439.1 1098.2,439.1 1099.6,442.8 1101,439.1 1101.8,439.1 1101.8,443.5 1101.2,443.5 
			1101.2,439.8 1101.2,439.8 1099.9,443.5 1099.4,443.5 1097.9,439.8 1097.9,439.8 1097.9,443.5 1097.4,443.5 		"/>
	</g>
</g>
</svg>
