<?xml version="1.0" encoding="utf-8"?>
<!-- Generator: Adobe Illustrator 18.0.0, SVG Export Plug-In . SVG Version: 6.00 Build 0)  -->
<!DOCTYPE svg PUBLIC "-//W3C//DTD SVG 1.1 Tiny//EN" "http://www.w3.org/Graphics/SVG/1.1/DTD/svg11-tiny.dtd">
<svg version="1.1" baseProfile="tiny" id="Layer_1" xmlns="http://www.w3.org/2000/svg" xmlns:xlink="http://www.w3.org/1999/xlink"
	 x="0px" y="0px" viewBox="0 0 260.5 58.5" xml:space="preserve">
<path fill="#FFFFFF" d="M122.3,13.6c-1.4,0-3.9,4.9-0.1,16.8c0,0.1,0,0.1,0,0.1c-0.1,0-0.2-0.2-0.2-0.2c-3.9-9.1-2.4-12.2-2.6-12.2
	c0,0,0,0-0.1,0c-0.6,0-2.7,4.2,0.6,14.5c0.1,0.2,0.1,0.3,0,0.3c-0.1,0-0.3-0.3-0.3-0.5c-3-6.5-1.9-9.1-2.2-9.2c0,0,0,0,0,0
	c-0.4,0-2.2,3.2,0.2,11.2c1.2,3.8,3.2,12.2,11.2,13.5c0.3,0,0.6,0.1,0.9,0.1h0.1c4.4,0,8.9-5.3,9.4-5.9c1.1-1.4,2.7-3.4,4.9-3.4
	c0.5,0,1.1,0.1,1.7,0.4c-0.1-0.1-0.2-0.2-0.4-0.3c-0.3-0.2-0.8-0.3-1.6-0.3c-1.1,0-2.6,0.3-4.7,1.6c-0.8,0.5-1.6,0.9-2.4,1.4
	c-1.1,0.6-2.2,1-3.3,1c-1.2,0-2.4-0.5-3.5-1.7c-1.2-1.4-2.2-3.4-2.9-5.5c-1-3.2-0.6-6.8,0.2-10.2c-2.1-5.7-1.8-8.7-2-8.8
	c0,0,0,0-0.1,0c-0.4,0-2.2,1.2-0.7,7.9C125,26.8,126,29,126,29c0,0,0,0,0,0c-0.1,0-0.2-0.2-0.2-0.2c-5.1-10.4-3.1-15.1-3.4-15.2
	C122.4,13.7,122.3,13.6,122.3,13.6 M145.9,39.1L145.9,39.1C145.9,39.1,145.9,39.1,145.9,39.1C145.9,39.1,145.9,39.1,145.9,39.1"/>
<path fill="#FFFFFF" d="M140,10.6c-1.3,0-4.7,2.7-7.4,13c0,0.1,0,0.1-0.1,0.1c-0.1,0-0.1-0.2-0.1-0.2c1.5-8.9,4.2-11.2,4.1-11.3
	c0,0-0.1-0.1-0.2-0.1c-0.8,0-3.8,1.9-6.3,11.1c-0.1,0.2-0.1,0.3-0.1,0.3c-0.1,0-0.1-0.3,0-0.5c0.9-6.5,3-8.4,2.9-8.5c0,0,0,0-0.1,0
	c-0.5,0-3.1,1.4-5.3,9.7c-0.1,0.3-0.2,0.7-0.2,1c0.9,2.6,2.4,5.6,4.6,9.2c0.6,1,2.1,3.3,3.8,3.3c0.2,0,0.4,0,0.6-0.1
	c0.7-0.2,1.3-0.6,1.9-0.9c0.9-0.4,1.9-0.6,2.9-0.7c0.1,0,0.3,0,0.4,0c1.1,0,2.5,0.3,3.7,1.1c0.5,0.3,0.8,1.1,0.8,1.7v0.1
	c0,0.1,0,0.2-0.1,0.3c0.4-0.4,0.5-1.2,0.3-1.7c-0.5-1.1-1.7-1.8-2.6-2.1c-0.6-0.2-1.3-0.2-1.9-0.2c-0.2,0-0.4,0-0.7,0
	c-0.6,0-1.3,0.1-1.9,0.2c-0.1,0-0.2,0-0.3,0c-0.5,0-0.8-0.3-1-0.7c-0.4-0.8-0.4-2.2-0.4-3.4c0.4-12,4.1-17.2,3.9-17.4
	c0,0-0.1,0-0.1,0c-0.5,0-2.3,0.9-4.3,6.6c-0.9,2.4-1.2,4.6-1.2,4.6c0,0,0,0,0,0c-0.1,0,0-0.2,0-0.2c1.2-10.4,5.1-13.9,4.9-14
	C140.4,10.7,140.2,10.6,140,10.6 M145.9,39.1L145.9,39.1C145.9,39.1,145.9,39.1,145.9,39.1C145.9,39.1,145.9,39.1,145.9,39.1"/>
<path fill="#FFFFFF" d="M127.3,25.1c-0.8,3.3-1.2,6.9-0.2,10.2c0.7,2.1,1.6,4.1,2.9,5.5c1.1,1.2,2.3,1.7,3.5,1.7
	c1.1,0,2.2-0.4,3.3-1c0.8-0.4,1.6-0.9,2.4-1.4c2.1-1.2,3.6-1.6,4.7-1.6c0.7,0,1.2,0.2,1.6,0.3c0.2,0.1,0.4,0.2,0.4,0.3c0,0,0,0,0,0
	h0c0-0.1,0.1-0.2,0.1-0.3v-0.1c0-0.6-0.3-1.3-0.8-1.7c-1.1-0.8-2.6-1.1-3.7-1.1c-0.1,0-0.3,0-0.4,0c-1.1,0.1-2,0.4-2.9,0.7
	c-0.7,0.3-1.3,0.7-1.9,0.9c-0.2,0.1-0.4,0.1-0.6,0.1c-1.7,0-3.2-2.3-3.8-3.3C129.7,30.8,128.3,27.7,127.3,25.1"/>
<path fill="#FFFFFF" d="M145.9,39.1C145.9,39.1,145.9,39.1,145.9,39.1C145.9,39.1,145.9,39.1,145.9,39.1"/>
<line fill="none" stroke="#FFFFFF" stroke-miterlimit="10" x1="0" y1="33.8" x2="94.5" y2="33.8"/>
<line fill="none" stroke="#FFFFFF" stroke-miterlimit="10" x1="166" y1="33.8" x2="260.5" y2="33.8"/>
</svg>
