<?xml version="1.0" encoding="utf-8"?>
<!-- Generator: Adobe Illustrator 18.0.0, SVG Export Plug-In . SVG Version: 6.00 Build 0)  -->
<!DOCTYPE svg PUBLIC "-//W3C//DTD SVG 1.1//EN" "http://www.w3.org/Graphics/SVG/1.1/DTD/svg11.dtd">
<svg version="1.1" id="Isolation_Mode" xmlns="http://www.w3.org/2000/svg" xmlns:xlink="http://www.w3.org/1999/xlink" x="0px"
	 y="0px" viewBox="0 0 61.5 72.5" enable-background="new 0 0 61.5 72.5" xml:space="preserve">
<path fill="#FFFFFF" d="M14.9,8.4c-2.5,0-7,8.8-0.2,29.9c0,0.1,0,0.2-0.1,0.2c-0.1,0-0.4-0.4-0.4-0.4c-7-16.2-4.3-21.7-4.6-21.9
	c0,0-0.1,0-0.1,0c-1.1,0-4.8,7.5,1.1,25.9c0.1,0.4,0.1,0.5,0.1,0.5c-0.1,0-0.5-0.5-0.6-0.8C4.7,30.3,6.6,25.6,6.2,25.5c0,0,0,0,0,0
	c-0.7,0-3.9,5.7,0.4,20c2.1,6.8,5.8,21.7,20,24.1c0.5,0.1,1,0.1,1.5,0.1h0.1c7.9-0.1,15.9-9.4,16.9-10.6c2-2.6,4.8-6,8.8-6
	c1,0,2,0.2,3.1,0.7c-0.1-0.1-0.3-0.3-0.8-0.5c-0.6-0.3-1.5-0.6-2.8-0.6c-1.9,0-4.6,0.6-8.4,2.8c-1.4,0.8-2.8,1.7-4.2,2.5
	c-2,1.1-4,1.8-5.9,1.8c-2.2,0-4.3-0.9-6.2-3c-2.2-2.5-3.9-6-5.1-9.7c-1.8-5.8-1.1-12.2,0.3-18.1c-3.8-10.1-3.3-15.6-3.6-15.7
	c0,0-0.1,0-0.1,0c-0.8,0-3.8,2.1-1.3,14.1c1,4.7,2.8,8.7,2.8,8.7c0,0-0.1,0.1-0.1,0.1c-0.1,0-0.3-0.4-0.3-0.4
	c-9.1-18.5-5.5-26.9-6-27.1C15.1,8.4,15,8.4,14.9,8.4 M57.1,53.8L57.1,53.8C57.1,53.8,57.1,53.8,57.1,53.8
	C57.1,53.8,57.1,53.8,57.1,53.8"/>
<path fill="#FFFFFF" d="M46.7,3c-2.4,0-8.4,4.8-13.2,23.1c0,0.1-0.1,0.1-0.1,0.1c-0.1,0-0.2-0.4-0.2-0.4c2.7-16,7.4-20,7.3-20.1
	c-0.1-0.1-0.1-0.1-0.3-0.1C38.8,5.6,33.3,9,29,25.4c-0.1,0.4-0.2,0.5-0.2,0.5c-0.1,0-0.1-0.6-0.1-0.9c1.6-11.6,5.4-15,5.2-15.2
	c0,0-0.1,0-0.1,0c-0.9,0-5.5,2.6-9.4,17.3c-0.2,0.6-0.3,1.2-0.4,1.8c1.7,4.6,4.3,10.1,8.2,16.5c1.1,1.8,3.7,5.9,6.7,5.9
	c0.3,0,0.7-0.1,1-0.2c1.2-0.4,2.2-1.1,3.5-1.6c1.6-0.6,3.3-1.1,5.2-1.3c0.2,0,0.5,0,0.7,0c2,0,4.6,0.5,6.5,1.9
	c0.8,0.6,1.4,1.9,1.4,2.9v0.2c0,0.2,0,0.4-0.1,0.6c0.7-0.7,0.9-2.1,0.5-3c-0.9-2-3-3.2-4.6-3.7c-1.1-0.3-2.3-0.4-3.4-0.4
	c-0.4,0-0.8,0-1.2,0c-1.2,0.1-2.3,0.2-3.4,0.4c-0.2,0-0.4,0.1-0.6,0.1c-0.9,0-1.4-0.5-1.8-1.2c-0.7-1.5-0.7-3.9-0.7-6
	c0.7-21.4,7.2-30.8,7-31.1c0,0-0.1-0.1-0.2-0.1c-0.9,0-4.1,1.6-7.8,11.8c-1.6,4.3-2.2,8.3-2.2,8.3c0,0-0.1,0-0.1,0
	c-0.1,0-0.1-0.4-0.1-0.4c2.2-18.5,9.1-24.8,8.8-25C47.3,3.1,47,3,46.7,3 M57.1,53.8L57.1,53.8C57.1,53.8,57.1,53.8,57.1,53.8
	C57.1,53.8,57.1,53.8,57.1,53.8"/>
<path fill="#FFFFFF" d="M23.9,28.9c-1.4,5.9-2.1,12.4-0.3,18.1c1.2,3.8,2.9,7.3,5.1,9.7c1.9,2.1,4,3,6.2,3c2,0,4-0.7,5.9-1.8
	c1.4-0.8,2.8-1.7,4.2-2.5c3.7-2.2,6.5-2.8,8.4-2.8c1.3,0,2.2,0.3,2.8,0.6c0.4,0.2,0.7,0.4,0.8,0.5c0,0,0,0,0,0h0
	c0.1-0.2,0.1-0.3,0.1-0.5v-0.2c0-1-0.6-2.4-1.4-3c-2-1.4-4.6-1.9-6.5-1.9c-0.2,0-0.5,0-0.7,0c-1.9,0.1-3.6,0.6-5.2,1.3
	C42,50,41,50.7,39.8,51.1c-0.3,0.1-0.7,0.2-1,0.2c-3,0-5.6-4.1-6.7-5.9C28.2,38.9,25.6,33.4,23.9,28.9"/>
<path fill="#FFFFFF" d="M57.1,53.8C57.1,53.8,57.1,53.8,57.1,53.8C57.1,53.8,57.1,53.8,57.1,53.8"/>
</svg>
